<?xml version="1.0" encoding="UTF-8"?>
<svg width="200" height="200" viewBox="0 0 200 200" xmlns="http://www.w3.org/2000/svg">
    <!-- Timeline Track -->
    <line x1="40" y1="100" x2="160" y2="100" stroke="#f1f1f1" stroke-width="4"/>
    
    <!-- Timeline Points -->
    <circle cx="60" cy="100" r="10" fill="#20AA3E"/>
    <circle cx="100" cy="100" r="10" fill="#03A588"/>
    <circle cx="140" cy="100" r="10" fill="#20AA3E"/>
    
    <!-- Task Cards -->
    <rect x="45" y="50" width="30" height="30" rx="5" fill="#f1f1f1" stroke="#20AA3E" stroke-width="2"/>
    <rect x="85" y="120" width="30" height="30" rx="5" fill="#f1f1f1" stroke="#03A588" stroke-width="2"/>
    <rect x="125" y="50" width="30" height="30" rx="5" fill="#f1f1f1" stroke="#20AA3E" stroke-width="2"/>
    
    <!-- Connection Lines -->
    <line x1="60" y1="80" x2="60" y2="90" stroke="#20AA3E" stroke-width="2"/>
    <line x1="100" y1="110" x2="100" y2="120" stroke="#03A588" stroke-width="2"/>
    <line x1="140" y1="80" x2="140" y2="90" stroke="#20AA3E" stroke-width="2"/>
    
    <!-- Task Indicators -->
    <line x1="50" y1="60" x2="70" y2="60" stroke="#20AA3E" stroke-width="2"/>
    <line x1="50" y1="65" x2="70" y2="65" stroke="#20AA3E" stroke-width="2"/>
    <line x1="90" y1="130" x2="110" y2="130" stroke="#03A588" stroke-width="2"/>
    <line x1="90" y1="135" x2="110" y2="135" stroke="#03A588" stroke-width="2"/>
    <line x1="130" y1="60" x2="150" y2="60" stroke="#20AA3E" stroke-width="2"/>
    <line x1="130" y1="65" x2="150" y2="65" stroke="#20AA3E" stroke-width="2"/>
</svg>
